<?xml version="1.0" standalone="no"?>
<!DOCTYPE svg PUBLIC "-//W3C//DTD SVG 20010904//EN"
 "http://www.w3.org/TR/2001/REC-SVG-20010904/DTD/svg10.dtd">
<svg version="1.0" xmlns="http://www.w3.org/2000/svg"
 width="190.000000pt" height="190.000000pt" viewBox="0 0 190.000000 190.000000"
 preserveAspectRatio="xMidYMid meet">
<metadata>
Created by potrace 1.14, written by Peter Selinger 2001-2017
</metadata>
<g transform="translate(0.000000,190.000000) scale(0.100000,-0.100000)"
fill="#000000" stroke="none">
<path d="M90 1335 l0 -445 -45 0 -45 0 0 -170 0 -170 320 0 c176 0 320 3 320
6 0 3 -92 182 -204 397 -112 216 -215 416 -230 445 l-26 52 65 0 65 0 222
-445 223 -444 -28 -56 -27 -55 -305 0 -305 0 0 -165 0 -165 855 0 855 0 0 450
0 450 50 0 50 0 0 170 0 171 -96 -3 -97 -3 -124 -240 c-68 -132 -171 -333
-230 -447 -58 -115 -109 -208 -113 -208 -12 0 -540 984 -531 989 5 4 33 5 63
3 l54 -4 205 -384 c112 -211 207 -384 211 -384 7 0 236 459 339 678 l48 102
86 0 85 0 0 160 0 160 -855 0 -855 0 0 -445z"/>
</g>
</svg>
